<?xml version="1.0" standalone="no"?>
<!DOCTYPE svg PUBLIC "-//W3C//DTD SVG 20010904//EN"
 "http://www.w3.org/TR/2001/REC-SVG-20010904/DTD/svg10.dtd">
<svg version="1.0" xmlns="http://www.w3.org/2000/svg"
 width="1000.000000pt" height="1000.000000pt" viewBox="0 0 1000.000000 1000.000000"
 preserveAspectRatio="xMidYMid meet">
<metadata>
Created by potrace 1.11, written by Peter Selinger 2001-2013
</metadata>
<g transform="translate(0.000000,1000.000000) scale(0.100000,-0.100000)"
fill="#000000" stroke="none">
<path d="M2045 8106 c-76 -29 -128 -82 -153 -155 -9 -25 -12 -415 -12 -1489 0
-1385 -1 -1454 -17 -1440 -10 8 -339 175 -731 372 -599 300 -716 355 -732 346
-20 -11 -20 -22 -18 -742 3 -650 5 -732 19 -741 12 -7 157 62 615 291 856 429
848 426 856 437 4 5 9 -651 10 -1460 3 -1391 4 -1472 21 -1506 24 -47 68 -92
115 -115 36 -18 135 -19 2967 -22 3245 -2 2984 -8 3057 63 20 19 44 52 54 73
18 35 19 88 22 1145 2 1062 3 1107 20 1096 14 -9 27 -7 58 9 21 11 41 19 44
19 3 -1 21 8 40 19 19 12 329 169 688 349 358 180 652 333 652 339 0 7 -8 20
-18 28 -9 8 -338 175 -730 372 -598 299 -716 355 -732 346 -20 -10 -20 -2 -22
1097 -3 1043 -4 1110 -21 1144 -24 47 -68 92 -115 115 -36 18 -134 19 -2972
20 -2172 1 -2943 -1 -2965 -10z"/>
</g>
</svg>
